<svg width="140" height="132" viewBox="0 0 140 132" fill="none" xmlns="http://www.w3.org/2000/svg">
<path d="M71.2813 0.0492708C71.1143 0.0147809 70.932 0 70.7498 0C70.4207 0 70.0714 0 69.7423 0C69.4082 0 69.064 0 68.7299 0C68.5476 0 68.3856 0.0147809 68.2033 0.0492708C30.6092 1.36973 0.451904 31.5235 0.451904 68.4175C0.451904 95.9747 17.1126 121.068 41.9037 130.819C42.3846 131.016 42.8655 131.095 43.3465 131.095C44.2881 131.095 45.1842 130.74 45.8625 130.065C47.2699 128.661 48.8595 127.099 39.1547 104.178C49.4569 106.484 65.2215 106.627 69.2462 106.627H69.2614C69.4082 106.627 69.5753 106.627 69.7272 106.627C69.874 106.627 70.041 106.627 70.1879 106.627H70.203C74.2277 106.627 89.9923 106.469 100.295 104.178C90.5897 127.079 92.1642 128.661 93.5867 130.065C94.2651 130.74 95.1764 131.095 96.1028 131.095C96.5837 131.095 97.0647 130.996 97.5456 130.819C122.367 121.054 139.028 95.9747 139.028 68.4175C139.028 31.5235 108.855 1.35002 71.2813 0.0492708ZM69.7423 100.345C54.6409 100.345 44.3387 98.99 39.2205 97.7139C44.3387 96.4427 54.6409 95.0878 69.7423 95.0878C84.8438 95.0878 95.146 96.4427 100.259 97.7139C95.1257 98.9753 84.8438 100.345 69.7423 100.345ZM100.112 122.729C101.935 117.235 105.661 107.933 109.22 99.8621C109.62 99.197 109.802 98.4875 109.802 97.6991C109.802 94.0876 105.894 92.0084 96.285 90.4957C89.1672 89.3822 79.7458 88.7565 69.7423 88.7565C59.7388 88.7565 50.3175 89.3674 43.1946 90.4957C33.6062 91.9936 29.698 94.0876 29.698 97.6991C29.698 98.4875 29.8802 99.2167 30.2802 99.8621C33.8239 107.933 37.5651 117.22 39.3876 122.729C19.7805 112.707 6.94709 91.5255 6.94709 68.3978C6.94709 34.4748 35.0338 6.81416 69.7575 6.30174C104.486 6.83386 132.568 34.4896 132.568 68.3978C132.553 91.5452 119.704 112.707 100.112 122.729Z" fill="white"/>
</svg>
